<?xml version="1.0" encoding="utf-8"?>
<!-- Generator: Adobe Illustrator 21.1.0, SVG Export Plug-In . SVG Version: 6.00 Build 0)  -->
<svg version="1.1" id="Lager_1" xmlns="http://www.w3.org/2000/svg" xmlns:xlink="http://www.w3.org/1999/xlink" x="0px" y="0px"
	 viewBox="0 0 32 32" style="enable-background:new 0 0 32 32;" xml:space="preserve">
<style type="text/css">
	.st0{fill:#007AFF;}
</style>
<g id="icomoon-ignore">
</g>
<path class="st0" d="M16.1,11.2c0.9,0,1.6-0.7,1.6-1.6C17.7,8.7,17,8,16.1,8s-1.6,0.7-1.6,1.6C14.5,10.4,15.2,11.2,16.1,11.2z"/>
<path class="st0" d="M17.2,13.3v-1.1H14v1.1H15v9.1H14v1.1h4.3v-1.1h-1.1V13.3z"/>
<path class="st0" d="M16,2.7C8.6,2.7,2.7,8.6,2.7,16c0,7.4,6,13.3,13.3,13.3s13.3-6,13.3-13.3C29.3,8.6,23.4,2.7,16,2.7z M16,28.3
	C9.2,28.3,3.7,22.8,3.7,16S9.2,3.7,16,3.7c6.8,0,12.3,5.5,12.3,12.3S22.8,28.3,16,28.3z"/>
</svg>
