<?xml version="1.0" encoding="utf-8"?>
<!-- Generator: Adobe Illustrator 21.1.0, SVG Export Plug-In . SVG Version: 6.00 Build 0)  -->
<svg version="1.1" id="Lager_1" xmlns="http://www.w3.org/2000/svg" xmlns:xlink="http://www.w3.org/1999/xlink" x="0px" y="0px"
	 viewBox="0 0 32 32" style="enable-background:new 0 0 32 32;" xml:space="preserve">
<style type="text/css">
	.st0{fill:#007AFF;}
</style>
<g id="icomoon-ignore">
</g>
<path class="st0" d="M26.1,5.9h-5.3V4.8c0-1.2-1-2.1-2.1-2.1h-5.3c-1.2,0-2.1,1-2.1,2.1v1.1H5.9v1.1H7L8,27.2c0,1.2,1,2.1,2.1,2.1
	h11.7c1.2,0,2.1-1,2.1-2.1l1-20.3h1.1L26.1,5.9L26.1,5.9z M12.3,4.8c0-0.6,0.5-1.1,1.1-1.1h5.3c0.6,0,1.1,0.5,1.1,1.1v1.1h-7.5
	L12.3,4.8L12.3,4.8z M23,27.1L23,27.1L23,27.1c0,0.6-0.5,1.1-1.1,1.1H10.2c-0.6,0-1.1-0.5-1.1-1.1v0l0,0L8,6.9h16
	C24,6.9,23,27.1,23,27.1z"/>
<path class="st0" d="M15.5,9.1h1.1v17.1h-1.1C15.5,26.1,15.5,9.1,15.5,9.1z"/>
<path class="st0" d="M13.4,26.1l-1.1-17l-1.1,0.1l1.1,17L13.4,26.1z"/>
<path class="st0" d="M20.8,9.1L19.7,9l-1.1,17.1l1.1,0.1L20.8,9.1z"/>
</svg>
