<svg xmlns="http://www.w3.org/2000/svg" width="24" height="24" viewBox="0 0 24 24" fill="currentColor" stroke="none" stroke-width="0" stroke-linecap="round" stroke-linejoin="round"><path d="M12.8,11.6l-1,1.4c-0.1-0.1-0.1-0.1-0.2-0.2V22H9.8v-0.8H5.5V22h-2v-8.6c-0.2,0.1-0.3,0.2-0.4,0.3L2,12 c1.3-0.7,2.3-1.5,3.1-2.4H2.8V7.6h1.6C4.2,7,3.9,6.4,3.6,5.9l1.6-0.6C5.5,5.9,5.7,6.7,6,7.6h0.7v-3c-1,0.1-2.1,0.1-3.2,0.1L2.9,3 C6.1,3,8.8,2.7,11,2l1,1.7C11,4,9.9,4.3,8.6,4.5v3.1h0.6c0.4-0.9,0.7-1.8,0.9-2.8l1.7,0.6c-0.3,0.8-0.6,1.5-0.9,2.2h1.3v1.9H8.6 v2.8H6.7V9.6c-0.6,1.2-1.4,2.3-2.4,3.2h7.3c-0.9-0.7-1.8-1.3-2.7-1.7l0.9-1.3C10.9,10.3,11.9,10.9,12.8,11.6z M6.8,16.1v-1.6H5.5 v1.6H6.8z M6.8,19.5v-1.8H5.5v1.8H6.8z M9.8,16.1v-1.6H8.5v1.6H9.8z M9.8,19.5v-1.8H8.5v1.8H9.8z M12.7,19.7l1.7,0.1 c0.4,0,0.5-0.3,0.5-0.8v-3.6c-0.6,0.8-1.3,1.5-2.1,2.2l-0.9-2c1.1-0.9,2.1-1.9,3-3.1V4.7h-2.5V2.9H17v16.7c0,1.5-0.7,2.2-2,2.2 h-1.6L12.7,19.7z M14.8,11.2l-1.4,0.6c-0.4-1.9-0.8-3.5-1.3-4.9l1.5-0.5C14.1,7.9,14.5,9.5,14.8,11.2z M19.7,10.9l-1.4,0.7 c-0.4-1.9-0.8-3.5-1.2-5l1.5-0.5C19,7.6,19.4,9.2,19.7,10.9z M17.7,19.7l1.7,0.1c0.4,0,0.6-0.3,0.6-0.9v-3.9 c-0.5,0.8-1.1,1.6-1.8,2.3l-0.9-2c1-1,1.9-2.1,2.7-3.3v-7h-2.4v-2H22v16.6c0,1.5-0.7,2.3-2.1,2.3h-1.6L17.7,19.7z"/></svg>